# Wavefront Object File.
# Created by Cold Fusion HOD Editor v3.1.5
# Date: 10-02-2013; Time: 01:33:29
# 

# Mesh Part #1
g Part1
usemtl Material_0

v -1.349284 0.3259255 3.622881
vn 0 1 5.112692E-09
vt 0.4056202 0.8950801

v -1.349284 0.3259255 4.29929E-07
vn 0 1 5.112693E-09
vt 0.9056203 0.8950801

v -1.919603 0.3259255 3.622881
vn 0 1 5.112693E-09
vt 0.4056202 0.9888301

v -1.919603 0.3259255 4.29929E-07
vn 0 1 5.112693E-09
vt 0.9056203 0.9888301

v -1.919603 -0.7812091 3.622882
vn 0 -1 -2.003154E-10
vt 0.4056202 0.8950801

v -1.919603 -0.7812091 4.224038E-07
vn 0 -1 -2.003154E-10
vt 0.9056203 0.8950801

v -1.349284 -0.7812091 3.622882
vn 0 -1 -2.003154E-10
vt 0.4056202 0.9888301

v -1.349284 -0.7812091 4.224038E-07
vn 0 -1 -2.003154E-10
vt 0.9056203 0.9888301

v -2.073307 -0.5425457 3.622882
vn -1 -1.037924E-07 0
vt 0.125 0.515625

v -2.073307 0.0872622 3.622882
vn -1 -1.037924E-07 0
vt 0.046875 0.515625

v -2.073307 -0.5425457 4.24026E-07
vn -1 -1.037924E-07 0
vt 0.125 0.015625

v -2.073307 0.0872622 4.283068E-07
vn -1 -1.037924E-07 0
vt 0.046875 0.015625

v -1.349284 0.3259255 3.622881
vn 0.8407367 0.5414441 7.203942E-10
vt 1.559659E-02 0.515625

v -1.195582 8.726181E-02 3.622882
vn 0.8407369 0.5414441 5.551116E-17
vt 4.769439E-02 0.515625

v -1.349284 0.3259255 4.29929E-07
vn 0.8407369 0.5414441 5.551116E-17
vt 1.559659E-02 0.015625

v -1.195582 8.726181E-02 4.283068E-07
vn 0.8407368 0.5414441 -7.203941E-10
vt 4.769439E-02 0.015625

v -1.349284 -0.7812091 4.224038E-07
vn 0.8407365 -0.5414447 -1.614422E-09
vt 0.1718466 0.015625

v -1.195582 -0.5425457 4.24026E-07
vn 0.8407364 -0.5414447 0
vt 0.1258194 0.015625

v -1.349284 -0.7812091 3.622882
vn 0.8407364 -0.5414447 0
vt 0.1718466 0.515625

v -1.195582 -0.5425457 3.622882
vn 0.8407364 -0.5414447 1.614421E-09
vt 0.1258194 0.515625

v -1.919603 -0.7812091 3.622882
vn -0.8407332 -0.5414498 -6.490548E-09
vt 0.171875 0.515625

v -2.073307 -0.5425457 3.622882
vn -0.8407332 -0.5414497 2.220446E-16
vt 0.125 0.515625

v -1.919603 -0.7812091 4.224038E-07
vn -0.8407332 -0.5414497 2.220446E-16
vt 0.171875 0.015625

v -2.073307 -0.5425457 4.24026E-07
vn -0.8407332 -0.5414496 6.490548E-09
vt 0.125 0.015625

v -1.919603 0.3259255 4.29929E-07
vn -0.8407332 0.5414498 9.562621E-10
vt 0.015625 0.015625

v -2.073307 0.0872622 4.283068E-07
vn -0.8407332 0.5414497 0
vt 0.046875 0.015625

v -1.919603 0.3259255 3.622881
vn -0.8407332 0.5414497 0
vt 0.015625 0.515625

v -2.073307 0.0872622 3.622882
vn -0.8407332 0.5414496 -9.56262E-10
vt 0.046875 0.515625

v -1.919603 -0.7812091 3.622882
vn 5.698325E-08 0 1
vt 0.2537217 0.907768

v -1.349284 -0.7812091 3.622882
vn 4.70046E-08 0 1
vt 0.1655555 0.907768

v -2.073307 -0.5425457 3.622882
vn 1.395764E-08 0 1
vt 0.277483 0.8660611

v -1.195582 -0.5425457 3.622882
vn -2.241554E-08 0 1
vt 0.1417939 0.866061

v -2.073307 0.0872622 3.622882
vn -8.647395E-08 9.989744E-07 1
vt 0.2774831 0.7560008

v -1.195582 8.726181E-02 3.622882
vn 1.150639E-08 1.997947E-06 1
vt 0.141794 0.7560006

v -1.919603 0.3259255 3.622881
vn 4.332774E-08 2.996921E-06 1
vt 0.2537218 0.7142937

v -1.349284 0.3259255 3.622881
vn 2.418047E-07 2.996919E-06 1
vt 0.1655556 0.7142937

v -1.195582 8.726181E-02 3.622882
vn 1 -1.324442E-08 0
vt 4.769439E-02 0.515625

v -1.195582 -0.5425457 3.622882
vn 1 -1.324442E-08 0
vt 0.1258194 0.515625

v -1.195582 8.726181E-02 4.283068E-07
vn 1 -1.324442E-08 0
vt 4.769439E-02 0.015625

v -1.195582 -0.5425457 4.24026E-07
vn 1 -1.324442E-08 0
vt 0.1258194 0.015625
# 40 vertice(s) in part #1.

f 1/1/1 2/2/2 3/3/3
f 2/2/2 4/4/4 3/3/3
f 5/5/5 6/6/6 7/7/7
f 6/6/6 8/8/8 7/7/7
f 9/9/9 10/10/10 11/11/11
f 10/10/10 12/12/12 11/11/11
f 13/13/13 14/14/14 15/15/15
f 14/14/14 16/16/16 15/15/15
f 17/17/17 18/18/18 19/19/19
f 18/18/18 20/20/20 19/19/19
f 21/21/21 22/22/22 23/23/23
f 22/22/22 24/24/24 23/23/23
f 25/25/25 26/26/26 27/27/27
f 26/26/26 28/28/28 27/27/27
f 29/29/29 30/30/30 31/31/31
f 30/30/30 32/32/32 31/31/31
f 31/31/31 32/32/32 33/33/33
f 32/32/32 34/34/34 33/33/33
f 33/33/33 34/34/34 35/35/35
f 34/34/34 36/36/36 35/35/35
f 37/37/37 38/38/38 39/39/39
f 38/38/38 40/40/40 39/39/39
# 22 listed triangle(s).
# 1  Mesh part(s).

# EOF
