# Wavefront Object File.
# Created by Cold Fusion HOD Editor v3.1.5
# Date: 02-07-2012; Time: 22:27:19
# 

# Mesh Part #1
g Part1
usemtl Material_4

v -18.16727 6.854221 12.58238
vn -0.6320287 0.7209257 0.2842636
vt 0 1

v -19.37247 -1.125773E-02 10.65383
vn -0.9912112 -4.30486E-07 0.1322889
vt 0 1

v -18.01432 -1.125802E-02 15.12751
vn -0.8345352 1.197841E-06 0.5509546
vt 0 1

v -18.16727 -6.876737 12.58238
vn -0.6320279 -0.7209265 0.2842635
vt 0 1

v -18.51425 -6.589758 7.271485
vn -0.6060217 -0.7597329 -0.235677
vt 0 1

v -18.63457 -1.125755E-02 4.493766
vn -0.8164659 5.113289E-07 -0.5773938
vt 0 1

v -18.51425 6.567244 7.271485
vn -0.6060218 0.7597328 -0.235677
vt 0 1

v -15.15765 12.08201 14.09023
vn -0.2638246 0.9460313 0.1882055
vt 0 1

v -16.77238 5.384694 16.94679
vn -0.5951141 0.5852184 0.5507801
vt 0 1

v -14.19957 8.416525 19.0472
vn -0.3080887 0.8071535 0.5035718
vt 0 1

v -13.11913 -1.125836E-02 22.79533
vn -0.4314056 -2.349892E-07 0.902158
vt 0 1

v -16.03326 -1.125818E-02 19.39207
vn -0.6667937 1.913974E-06 0.7452422
vt 0 1

v -16.77238 -5.40721 16.94679
vn -0.5951145 -0.5852175 0.5507805
vt 0 1

v -14.19958 -8.43904 19.0472
vn -0.3080887 -0.8071535 0.5035717
vt 0 1

v -15.15765 -12.10453 14.09023
vn -0.2638246 -0.9460314 0.1882055
vt 0 1

v -15.62384 -12.78416 8.36195
vn -0.2547008 -0.9669712 -9.705813E-03
vt 0 1

v -15.81644 -11.49159 3.648444
vn -0.3715559 -0.8532093 -0.366033
vt 0 1

v -15.88926 -0.0112575 1.376689
vn -0.46448 4.6493E-07 -0.8855837
vt 0 1

v -15.81644 11.46907 3.648444
vn -0.3715559 0.8532093 -0.366033
vt 0 1

v -15.62384 12.76165 8.36195
vn -0.2547012 0.9669711 -9.705815E-03
vt 0 1

v -10.7315 15.01812 14.86693
vn -0.1073716 0.9813244 0.1596052
vt 0 1

v -9.741385 11.17144 20.67324
vn -0.1338518 0.8720109 0.4708298
vt 0 1

v -8.828602 -1.125857E-02 25.13988
vn -0.2088604 -4.985091E-07 0.9779454
vt 0 1

v -9.741385 -11.19395 20.67324
vn -0.1338518 -0.8720109 0.4708297
vt 0 1

v -10.7315 -15.04064 14.86693
vn -0.1073716 -0.9813244 0.1596052
vt 0 1

v -11.25201 -15.77118 8.151293
vn -9.770329E-02 -0.994864 -2.645079E-02
vt 0 1

v -11.56571 -14.00818 2.573212
vn -0.134254 -0.9331084 -0.333593
vt 0 1

v -11.57435 -10.56651 0.1758286
vn -0.1716212 -0.5342988 -0.8276901
vt 0 1

v -11.70534 -1.125735E-02 -0.4336748
vn -0.1475357 -2.512039E-08 -0.9890566
vt 0 1

v -11.57435 10.54399 0.1758286
vn -0.1716212 0.5342986 -0.8276902
vt 0 1

v -11.56571 13.98567 2.573212
vn -0.1342541 0.9331086 -0.3335931
vt 0 1

v -11.25201 15.74866 8.151293
vn -0.0977033 0.994864 -2.645079E-02
vt 0 1

v -5.029486 16.66489 15.07111
vn -4.062724E-02 0.9890428 0.1419284
vt 0 1

v -4.48687 12.62872 21.1004
vn -4.777067E-02 0.890133 0.45319
vt 0 1

v -3.959411 -1.125884E-02 26.13024
vn -7.506095E-02 -1.758682E-07 0.9971789
vt 0 1

v -4.486869 -12.65123 21.1004
vn -4.777068E-02 -0.890133 0.4531901
vt 0 1

v -5.029487 -16.68741 15.07111
vn -4.062724E-02 -0.9890428 0.1419284
vt 0 1

v -5.313354 -17.38624 7.849399
vn -3.828869E-02 -0.9985043 -3.902635E-02
vt 0 1

v -5.503395 -15.40082 1.998147
vn -3.912504E-02 -0.9523439 -0.3025065
vt 0 1

v -5.477119 -11.37831 -0.4397393
vn -0.0414529 -0.6178611 -0.7851938
vt 0 1

v -5.510953 -1.125747E-02 -1.045553
vn -3.562804E-02 8.970891E-08 -0.9993651
vt 0 1

v -5.477119 11.35579 -0.4397393
vn -0.0414529 0.617861 -0.7851939
vt 0 1

v -5.503395 15.3783 1.998147
vn -3.912504E-02 0.952344 -0.3025065
vt 0 1

v -5.313354 17.36373 7.849399
vn -3.828869E-02 0.9985043 -3.902635E-02
vt 0 1

v -0.1122212 -1.125879E-02 26.34878
vn 0 -3.227237E-07 1
vt 0 1

v -0.1122212 12.81882 21.39276
vn 0 0.8926939 0.4506634
vt 0 1

v -0.112221 17.1134 15.1845
vn 0 0.9903224 0.1387867
vt 0 1

v -0.1122212 -17.13591 15.1845
vn 0 -0.9903224 0.1387867
vt 0 1

v -0.1122212 -12.84133 21.39276
vn 0 -0.8926939 0.4506634
vt 0 1

v -0.1122212 -15.85345 1.912501
vn 0 -0.9503022 -0.3113288
vt 0 1

v -0.112221 -17.90221 7.882049
vn 0 -0.9990922 -4.259881E-02
vt 0 1

v -0.1122212 -1.125749E-02 -1.156614
vn 0 3.677114E-07 -1
vt 0 1

v -0.112221 -11.69977 -0.5577986
vn 0 -0.6076946 -0.7941708
vt 0 1

v -0.1122212 15.83094 1.912501
vn 0 0.9503023 -0.3113288
vt 0 1

v -0.112221 11.67726 -0.5577986
vn 0 0.607695 -0.7941704
vt 0 1

v -0.112221 17.87969 7.882049
vn 0 0.9990922 -4.259881E-02
vt 0 1

v 17.94283 6.854222 12.5824
vn 0.6320289 0.7209255 0.2842637
vt 0 1

v 17.78988 -1.125829E-02 15.12751
vn 0.8345352 -1.218582E-06 0.5509546
vt 0 1

v 19.14803 -1.125747E-02 10.65383
vn 0.9912112 -1.044646E-06 0.1322889
vt 0 1

v 17.94283 -6.876737 12.58238
vn 0.632028 -0.7209263 0.2842636
vt 0 1

v 18.28981 -6.589758 7.271485
vn 0.6060221 -0.7597326 -0.2356772
vt 0 1

v 18.41013 -1.125747E-02 4.493766
vn 0.8164656 8.666596E-08 -0.577394
vt 0 1

v 18.28981 6.567244 7.271485
vn 0.6060219 0.7597327 -0.2356771
vt 0 1

v 14.9332 12.08201 14.09023
vn 0.2638247 0.9460312 0.1882055
vt 0 1

v 13.97513 8.416526 19.0472
vn 0.3080888 0.8071533 0.5035719
vt 0 1

v 16.54794 5.384694 16.94679
vn 0.595114 0.5852181 0.5507805
vt 0 1

v 12.89468 -1.125829E-02 22.79533
vn 0.4314052 -4.259181E-07 0.9021582
vt 0 1

v 13.97514 -8.43904 19.0472
vn 0.3080887 -0.8071536 0.5035716
vt 0 1

v 16.54794 -5.40721 16.94679
vn 0.5951141 -0.5852182 0.5507802
vt 0 1

v 15.80882 -1.125829E-02 19.39207
vn 0.6667937 5.981168E-07 0.7452422
vt 0 1

v 14.9332 -12.10453 14.09023
vn 0.2638246 -0.9460313 0.1882055
vt 0 1

v 15.39939 -12.78416 8.36195
vn 0.2547012 -0.9669711 -9.705815E-03
vt 0 1

v 15.592 -11.49159 3.648444
vn 0.3715563 -0.8532091 -0.366033
vt 0 1

v 15.66481 -1.125747E-02 1.376689
vn 0.4644795 -6.538078E-08 -0.8855838
vt 0 1

v 15.592 11.46907 3.648444
vn 0.3715564 0.853209 -0.3660331
vt 0 1

v 15.3994 12.76165 8.36195
vn 0.2547012 0.9669711 -9.705816E-03
vt 0 1

v 10.50706 15.01812 14.86693
vn 0.1073716 0.9813244 0.1596052
vt 0 1

v 9.516942 11.17144 20.67324
vn 0.1338518 0.8720109 0.4708298
vt 0 1

v 8.604159 -0.0112587 25.13988
vn 0.2088604 -6.158057E-07 0.9779454
vt 0 1

v 9.516941 -11.19395 20.67324
vn 0.1338517 -0.872011 0.4708295
vt 0 1

v 10.50706 -15.04064 14.86693
vn 0.1073716 -0.9813244 0.1596052
vt 0 1

v 11.02757 -15.77118 8.151293
vn 9.770329E-02 -0.994864 -2.645079E-02
vt 0 1

v 11.34127 -14.00819 2.573212
vn 0.134254 -0.9331085 -0.333593
vt 0 1

v 11.34991 -10.56651 0.1758286
vn 0.1716212 -0.5342987 -0.8276902
vt 0 1

v 11.4809 -0.0112572 -0.4336748
vn 0.1475357 -9.420145E-07 -0.9890566
vt 0 1

v 11.34991 10.54399 0.1758286
vn 0.1716217 0.5342983 -0.8276902
vt 0 1

v 11.34127 13.98567 2.573212
vn 0.134254 0.9331086 -0.333593
vt 0 1

v 11.02757 15.74866 8.151293
vn 9.770329E-02 0.994864 -2.645079E-02
vt 0 1

v 4.805044 16.66489 15.07111
vn 4.062724E-02 0.9890428 0.1419284
vt 0 1

v 4.262428 12.62872 21.1004
vn 4.777067E-02 0.890133 0.45319
vt 0 1

v 3.734968 -1.125884E-02 26.13024
vn 7.506095E-02 -4.689819E-07 0.9971789
vt 0 1

v 4.262427 -12.65123 21.1004
vn 4.777066E-02 -0.890133 0.4531899
vt 0 1

v 4.805045 -16.68741 15.07111
vn 4.062724E-02 -0.9890428 0.1419284
vt 0 1

v 5.088912 -17.38624 7.849399
vn 3.828869E-02 -0.9985043 -3.902635E-02
vt 0 1

v 5.278953 -15.40082 1.998147
vn 3.912504E-02 -0.9523439 -0.3025065
vt 0 1

v 5.252677 -11.37831 -0.4397393
vn 4.145289E-02 -0.6178614 -0.7851936
vt 0 1

v 5.286511 -1.125747E-02 -1.045553
vn 3.562804E-02 -5.970282E-07 -0.9993651
vt 0 1

v 5.252677 11.35579 -0.4397393
vn 4.145287E-02 0.6178619 -0.7851932
vt 0 1

v 5.278953 15.3783 1.998147
vn 3.912472E-02 0.9523441 -0.3025063
vt 0 1

v 5.088912 17.36373 7.849399
vn 3.828869E-02 0.9985044 -3.902635E-02
vt 0 1
# 100 vertice(s) in part #1.

f 1/1/1 2/2/2 3/3/3
f 3/3/3 2/2/2 4/4/4
f 4/4/4 2/2/2 5/5/5
f 5/5/5 2/2/2 6/6/6
f 7/7/7 2/2/2 1/1/1
f 8/8/8 1/1/1 9/9/9
f 8/8/8 9/9/9 10/10/10
f 11/11/11 12/12/12 13/13/13
f 11/11/11 13/13/13 14/14/14
f 15/15/15 4/4/4 5/5/5
f 15/15/15 5/5/5 16/16/16
f 17/17/17 5/5/5 18/18/18
f 18/18/18 5/5/5 6/6/6
f 18/18/18 7/7/7 19/19/19
f 19/19/19 7/7/7 20/20/20
f 21/21/21 8/8/8 10/10/10
f 21/21/21 10/10/10 22/22/22
f 23/23/23 11/11/11 14/14/14
f 23/23/23 14/14/14 24/24/24
f 25/25/25 15/15/15 16/16/16
f 25/25/25 16/16/16 26/26/26
f 27/27/27 17/17/17 18/18/18
f 27/27/27 18/18/18 28/28/28
f 29/29/29 18/18/18 30/30/30
f 31/31/31 19/19/19 20/20/20
f 31/31/31 20/20/20 32/32/32
f 33/33/33 21/21/21 22/22/22
f 33/33/33 22/22/22 34/34/34
f 35/35/35 23/23/23 24/24/24
f 35/35/35 24/24/24 36/36/36
f 37/37/37 25/25/25 26/26/26
f 37/37/37 26/26/26 38/38/38
f 39/39/39 27/27/27 28/28/28
f 39/39/39 28/28/28 40/40/40
f 41/41/41 29/29/29 30/30/30
f 41/41/41 30/30/30 42/42/42
f 43/43/43 31/31/31 32/32/32
f 43/43/43 32/32/32 44/44/44
f 3/3/3 12/12/12 9/9/9
f 9/9/9 1/1/1 3/3/3
f 4/4/4 13/13/13 3/3/3
f 13/13/13 12/12/12 3/3/3
f 9/9/9 12/12/12 11/11/11
f 9/9/9 11/11/11 10/10/10
f 13/13/13 4/4/4 15/15/15
f 13/13/13 15/15/15 14/14/14
f 5/5/5 17/17/17 16/16/16
f 6/6/6 7/7/7 18/18/18
f 7/7/7 1/1/1 8/8/8
f 7/7/7 8/8/8 20/20/20
f 10/10/10 11/11/11 23/23/23
f 10/10/10 23/23/23 22/22/22
f 14/14/14 15/15/15 25/25/25
f 14/14/14 25/25/25 24/24/24
f 16/16/16 17/17/17 27/27/27
f 16/16/16 27/27/27 26/26/26
f 18/18/18 29/29/29 28/28/28
f 18/18/18 19/19/19 31/31/31
f 18/18/18 31/31/31 30/30/30
f 20/20/20 8/8/8 21/21/21
f 20/20/20 21/21/21 32/32/32
f 22/22/22 23/23/23 35/35/35
f 22/22/22 35/35/35 34/34/34
f 35/35/35 45/45/45 46/46/46
f 35/35/35 46/46/46 34/34/34
f 46/46/46 47/47/47 33/33/33
f 46/46/46 33/33/33 34/34/34
f 24/24/24 25/25/25 37/37/37
f 24/24/24 37/37/37 36/36/36
f 37/37/37 48/48/48 49/49/49
f 37/37/37 49/49/49 36/36/36
f 49/49/49 45/45/45 35/35/35
f 49/49/49 35/35/35 36/36/36
f 26/26/26 27/27/27 39/39/39
f 26/26/26 39/39/39 38/38/38
f 39/39/39 50/50/50 51/51/51
f 39/39/39 51/51/51 38/38/38
f 51/51/51 48/48/48 37/37/37
f 51/51/51 37/37/37 38/38/38
f 28/28/28 29/29/29 41/41/41
f 28/28/28 41/41/41 40/40/40
f 41/41/41 52/52/52 53/53/53
f 41/41/41 53/53/53 40/40/40
f 53/53/53 50/50/50 39/39/39
f 53/53/53 39/39/39 40/40/40
f 30/30/30 31/31/31 43/43/43
f 30/30/30 43/43/43 42/42/42
f 43/43/43 54/54/54 55/55/55
f 43/43/43 55/55/55 42/42/42
f 55/55/55 52/52/52 41/41/41
f 55/55/55 41/41/41 42/42/42
f 32/32/32 21/21/21 33/33/33
f 32/32/32 33/33/33 44/44/44
f 33/33/33 47/47/47 56/56/56
f 33/33/33 56/56/56 44/44/44
f 56/56/56 54/54/54 43/43/43
f 56/56/56 43/43/43 44/44/44
f 6/6/6 2/2/2 7/7/7
f 57/57/57 58/58/58 59/59/59
f 58/58/58 60/60/60 59/59/59
f 60/60/60 61/61/61 59/59/59
f 61/61/61 62/62/62 59/59/59
f 63/63/63 57/57/57 59/59/59
f 64/64/64 65/65/65 66/66/66
f 64/64/64 66/66/66 57/57/57
f 67/67/67 68/68/68 69/69/69
f 67/67/67 69/69/69 70/70/70
f 71/71/71 72/72/72 61/61/61
f 71/71/71 61/61/61 60/60/60
f 73/73/73 74/74/74 61/61/61
f 74/74/74 62/62/62 61/61/61
f 74/74/74 75/75/75 63/63/63
f 75/75/75 76/76/76 63/63/63
f 77/77/77 78/78/78 65/65/65
f 77/77/77 65/65/65 64/64/64
f 79/79/79 80/80/80 68/68/68
f 79/79/79 68/68/68 67/67/67
f 81/81/81 82/82/82 72/72/72
f 81/81/81 72/72/72 71/71/71
f 83/83/83 84/84/84 74/74/74
f 83/83/83 74/74/74 73/73/73
f 85/85/85 86/86/86 74/74/74
f 87/87/87 88/88/88 76/76/76
f 87/87/87 76/76/76 75/75/75
f 89/89/89 90/90/90 78/78/78
f 89/89/89 78/78/78 77/77/77
f 91/91/91 92/92/92 80/80/80
f 91/91/91 80/80/80 79/79/79
f 93/93/93 94/94/94 82/82/82
f 93/93/93 82/82/82 81/81/81
f 95/95/95 96/96/96 84/84/84
f 95/95/95 84/84/84 83/83/83
f 97/97/97 98/98/98 86/86/86
f 97/97/97 86/86/86 85/85/85
f 99/99/99 100/100/100 88/88/88
f 99/99/99 88/88/88 87/87/87
f 58/58/58 66/66/66 70/70/70
f 66/66/66 58/58/58 57/57/57
f 60/60/60 58/58/58 69/69/69
f 69/69/69 58/58/58 70/70/70
f 66/66/66 65/65/65 67/67/67
f 66/66/66 67/67/67 70/70/70
f 69/69/69 68/68/68 71/71/71
f 69/69/69 71/71/71 60/60/60
f 61/61/61 72/72/72 73/73/73
f 62/62/62 74/74/74 63/63/63
f 63/63/63 76/76/76 64/64/64
f 63/63/63 64/64/64 57/57/57
f 65/65/65 78/78/78 79/79/79
f 65/65/65 79/79/79 67/67/67
f 68/68/68 80/80/80 81/81/81
f 68/68/68 81/81/81 71/71/71
f 72/72/72 82/82/82 83/83/83
f 72/72/72 83/83/83 73/73/73
f 74/74/74 84/84/84 85/85/85
f 74/74/74 86/86/86 87/87/87
f 74/74/74 87/87/87 75/75/75
f 76/76/76 88/88/88 77/77/77
f 76/76/76 77/77/77 64/64/64
f 78/78/78 90/90/90 91/91/91
f 78/78/78 91/91/91 79/79/79
f 91/91/91 90/90/90 46/46/46
f 91/91/91 46/46/46 45/45/45
f 46/46/46 90/90/90 89/89/89
f 46/46/46 89/89/89 47/47/47
f 80/80/80 92/92/92 93/93/93
f 80/80/80 93/93/93 81/81/81
f 93/93/93 92/92/92 49/49/49
f 93/93/93 49/49/49 48/48/48
f 49/49/49 92/92/92 91/91/91
f 49/49/49 91/91/91 45/45/45
f 82/82/82 94/94/94 95/95/95
f 82/82/82 95/95/95 83/83/83
f 95/95/95 94/94/94 51/51/51
f 95/95/95 51/51/51 50/50/50
f 51/51/51 94/94/94 93/93/93
f 51/51/51 93/93/93 48/48/48
f 84/84/84 96/96/96 97/97/97
f 84/84/84 97/97/97 85/85/85
f 97/97/97 96/96/96 53/53/53
f 97/97/97 53/53/53 52/52/52
f 53/53/53 96/96/96 95/95/95
f 53/53/53 95/95/95 50/50/50
f 86/86/86 98/98/98 99/99/99
f 86/86/86 99/99/99 87/87/87
f 99/99/99 98/98/98 55/55/55
f 99/99/99 55/55/55 54/54/54
f 55/55/55 98/98/98 97/97/97
f 55/55/55 97/97/97 52/52/52
f 88/88/88 100/100/100 89/89/89
f 88/88/88 89/89/89 77/77/77
f 89/89/89 100/100/100 56/56/56
f 89/89/89 56/56/56 47/47/47
f 56/56/56 100/100/100 99/99/99
f 56/56/56 99/99/99 54/54/54
f 62/62/62 63/63/63 59/59/59
# 196 listed triangle(s).
# 1  Mesh part(s).

# EOF
