# Wavefront Object File.
# Created by Cold Fusion HOD Editor v3.1.5
# Date: 02-07-2012; Time: 22:36:20
# 

# Mesh Part #1
g Part1
usemtl Material_0

v -18.25069 -2.100658E-02 8.434896
vn -0.9879341 4.566307E-08 0.1548753
vt 0.4642857 0.9142857

v -14.3901 -2.100658E-02 15.04581
vn -0.7523717 1.017633E-07 0.6587389
vt 0.15 0.8

v -16.17399 5.069478 10.47778
vn -0.8156032 0.4956717 0.298498
vt 0 0.8

v -16.17399 -5.111494 10.47778
vn -0.8156033 -0.4956716 0.2984978
vt 0.35 0.8

v -16.69863 -3.986511 3.657584
vn -0.8066248 -0.3487575 -0.4772051
vt 0.55 0.8

v -16.69863 3.944498 3.657584
vn -0.8066248 0.3487574 -0.4772051
vt 0.7500001 0.8

v -16.17399 5.069478 10.47778
vn -0.8156032 0.4956717 0.298498
vt 0.9500001 0.8

v -10.90211 2.372683 17.53404
vn -0.4966616 0.3164158 0.8082131
vt 0.1 0.7

v -13.10096 6.985445 11.24669
vn -0.4868754 0.8148952 0.3144807
vt 0 0.7

v -10.90211 -2.414697 17.53404
vn -0.4966615 -0.3164158 0.8082132
vt 0.2 0.7

v -13.10096 -7.027461 11.24669
vn -0.4868754 -0.8148953 0.3144806
vt 0.35 0.7

v -13.66322 -6.287768 2.811316
vn -0.460668 -0.6880209 -0.5607247
vt 0.5 0.7

v -13.66322 -3.107717 1.696166
vn -0.3744921 -0.1399285 -0.916611
vt 0.6 0.7

v -13.66322 3.065704 1.696166
vn -0.374492 0.1399286 -0.916611
vt 0.7 0.7

v -13.66322 6.245755 2.811316
vn -0.460668 0.688021 -0.5607246
vt 0.8000001 0.7

v -13.10096 6.985445 11.24669
vn -0.4868754 0.8148952 0.3144807
vt 0.9500001 0.7

v -6.67943 2.792943 19.13158
vn -0.2280821 0.4177956 0.8794462
vt 0.1 0.6

v -8.960948 8.215571 11.74036
vn -0.2089515 0.9326486 0.2941189
vt 0 0.6

v -6.67943 -2.834959 19.13158
vn -0.2280819 -0.4177958 0.879446
vt 0.2 0.6

v -8.960948 -8.257586 11.74035
vn -0.2089513 -0.9326487 0.2941187
vt 0.35 0.6

v -9.800928 -7.388027 1.823981
vn -0.2088418 -0.7412893 -0.6378678
vt 0.5 0.6

v -9.800928 -2.834958 0.8393846
vn -0.1361476 -0.1134635 -0.9841697
vt 0.6 0.6

v -9.800926 2.792944 0.8393846
vn -0.1361475 0.1134636 -0.9841697
vt 0.7 0.6

v -9.800927 7.346013 1.823982
vn -0.2088418 0.7412893 -0.6378677
vt 0.8000001 0.6

v -8.960948 8.215571 11.74036
vn -0.2089515 0.9326486 0.2941189
vt 0.9500001 0.6

v 0.4629598 3.147754 19.68206
vn -1.490142E-03 0.4392671 0.8983552
vt 0.1 0.5

v 0.4558992 9.254121 11.91046
vn -8.333847E-04 0.9590508 0.2832331
vt 0 0.5

v 0.4629598 -3.18977 19.68206
vn -1.490125E-03 -0.4392674 0.8983551
vt 0.2 0.5

v 0.4558992 -9.296135 11.91046
vn -8.333444E-04 -0.9590508 0.283233
vt 0.35 0.5

v 0.4518919 -8.316934 1.483768
vn -4.210785E-04 -0.7437878 -0.6684158
vt 0.5 0.5

v 0.4518917 -3.189769 0.544157
vn -1.700983E-04 -9.792846E-02 -0.9951935
vt 0.6 0.5

v 0.4518917 3.147755 0.544157
vn -1.701007E-04 9.792853E-02 -0.9951935
vt 0.7 0.5

v 0.4518914 8.27492 1.483768
vn -4.211122E-04 0.7437878 -0.6684157
vt 0.8000001 0.5

v 0.4558992 9.254121 11.91046
vn -8.333847E-04 0.9590508 0.2832331
vt 0.9500001 0.5

v 7.915987 2.792944 19.13158
vn 0.2228094 0.4204394 0.8795378
vt 0.1 0.4

v 9.963047 8.215572 11.74036
vn 0.200064 0.935199 0.2921938
vt 0 0.4

v 7.915988 -2.834959 19.13158
vn 0.2228094 -0.4204397 0.8795376
vt 0.2 0.4

v 9.963046 -8.257586 11.74035
vn 0.2000641 -0.935199 0.2921937
vt 0.35 0.4

v 10.80303 -7.388026 1.823981
vn 0.1976321 -0.7429578 -0.6394961
vt 0.5 0.4

v 10.80303 -2.834958 0.8393846
vn 0.1279189 -0.1136557 -0.9852508
vt 0.6 0.4

v 10.80303 2.792944 0.8393846
vn 0.1279189 0.1136558 -0.9852508
vt 0.7 0.4

v 10.80303 7.346013 1.823982
vn 0.1976321 0.7429578 -0.6394961
vt 0.8000001 0.4

v 9.963047 8.215572 11.74036
vn 0.200064 0.935199 0.2921938
vt 0.9500001 0.4

v 12.18444 2.372682 17.53404
vn 0.5052806 0.3142366 0.8037083
vt 0.1 0.3

v 14.39801 6.985446 11.24669
vn 0.4936105 0.8112907 0.3132987
vt 0 0.3

v 12.18444 -2.414697 17.53404
vn 0.5052806 -0.3142368 0.8037081
vt 0.2 0.3

v 14.39801 -7.027458 11.24669
vn 0.4936105 -0.8112907 0.3132987
vt 0.35 0.3

v 14.96027 -6.287768 2.811316
vn 0.466611 -0.6852064 -0.5592553
vt 0.5 0.3

v 14.96027 -3.107718 1.696166
vn 0.3806204 -0.1395986 -0.9141337
vt 0.6 0.3

v 14.96027 3.065703 1.696166
vn 0.3806204 0.1395986 -0.9141337
vt 0.7 0.3

v 14.96027 6.245755 2.811316
vn 0.4666109 0.6852064 -0.5592554
vt 0.8000001 0.3

v 14.39801 6.985446 11.24669
vn 0.4936105 0.8112907 0.3132987
vt 0.9500001 0.3

v 15.49052 -2.100658E-02 15.04581
vn 0.7674229 -1.391862E-07 0.6411415
vt 0.15 0.1999999

v 17.27441 5.069479 10.47778
vn 0.8329563 0.4691587 0.2933837
vt 0 0.1999999

v 17.27441 -5.111491 10.47778
vn 0.8329563 -0.4691589 0.2933838
vt 0.35 0.1999999

v 17.79905 -3.986511 3.657584
vn 0.8248126 -0.3335473 -0.4565417
vt 0.55 0.1999999

v 17.79905 3.944498 3.657584
vn 0.8248126 0.3335473 -0.4565418
vt 0.7500001 0.1999999

v 17.27441 5.069479 10.47778
vn 0.8329563 0.4691587 0.2933837
vt 0.9500001 0.1999999

v 19.15447 -2.100658E-02 8.434896
vn 0.9878236 -8.361429E-08 0.155578
vt 0.4642857 8.571422E-02
# 59 vertice(s) in part #1.

f 1/1/1 2/2/2 3/3/3
f 1/1/1 4/4/4 2/2/2
f 1/1/1 5/5/5 4/4/4
f 1/1/1 6/6/6 5/5/5
f 1/1/1 7/7/7 6/6/6
f 3/3/3 2/2/2 8/8/8
f 3/3/3 8/8/8 9/9/9
f 2/2/2 10/10/10 8/8/8
f 2/2/2 4/4/4 11/11/11
f 2/2/2 11/11/11 10/10/10
f 4/4/4 5/5/5 12/12/12
f 4/4/4 12/12/12 11/11/11
f 5/5/5 13/13/13 12/12/12
f 5/5/5 6/6/6 14/14/14
f 5/5/5 14/14/14 13/13/13
f 6/6/6 15/15/15 14/14/14
f 6/6/6 7/7/7 16/16/16
f 6/6/6 16/16/16 15/15/15
f 9/9/9 8/8/8 17/17/17
f 9/9/9 17/17/17 18/18/18
f 8/8/8 10/10/10 19/19/19
f 8/8/8 19/19/19 17/17/17
f 10/10/10 11/11/11 20/20/20
f 10/10/10 20/20/20 19/19/19
f 11/11/11 12/12/12 21/21/21
f 11/11/11 21/21/21 20/20/20
f 12/12/12 13/13/13 22/22/22
f 12/12/12 22/22/22 21/21/21
f 13/13/13 14/14/14 23/23/23
f 13/13/13 23/23/23 22/22/22
f 14/14/14 15/15/15 24/24/24
f 14/14/14 24/24/24 23/23/23
f 15/15/15 16/16/16 25/25/25
f 15/15/15 25/25/25 24/24/24
f 18/18/18 17/17/17 26/26/26
f 18/18/18 26/26/26 27/27/27
f 17/17/17 19/19/19 28/28/28
f 17/17/17 28/28/28 26/26/26
f 19/19/19 20/20/20 29/29/29
f 19/19/19 29/29/29 28/28/28
f 20/20/20 21/21/21 30/30/30
f 20/20/20 30/30/30 29/29/29
f 21/21/21 22/22/22 31/31/31
f 21/21/21 31/31/31 30/30/30
f 22/22/22 23/23/23 32/32/32
f 22/22/22 32/32/32 31/31/31
f 23/23/23 24/24/24 33/33/33
f 23/23/23 33/33/33 32/32/32
f 24/24/24 25/25/25 34/34/34
f 24/24/24 34/34/34 33/33/33
f 27/27/27 26/26/26 35/35/35
f 27/27/27 35/35/35 36/36/36
f 26/26/26 28/28/28 37/37/37
f 26/26/26 37/37/37 35/35/35
f 28/28/28 29/29/29 38/38/38
f 28/28/28 38/38/38 37/37/37
f 29/29/29 30/30/30 39/39/39
f 29/29/29 39/39/39 38/38/38
f 30/30/30 31/31/31 40/40/40
f 30/30/30 40/40/40 39/39/39
f 31/31/31 32/32/32 41/41/41
f 31/31/31 41/41/41 40/40/40
f 32/32/32 33/33/33 42/42/42
f 32/32/32 42/42/42 41/41/41
f 33/33/33 34/34/34 43/43/43
f 33/33/33 43/43/43 42/42/42
f 36/36/36 35/35/35 44/44/44
f 36/36/36 44/44/44 45/45/45
f 35/35/35 37/37/37 46/46/46
f 35/35/35 46/46/46 44/44/44
f 37/37/37 38/38/38 47/47/47
f 37/37/37 47/47/47 46/46/46
f 38/38/38 39/39/39 48/48/48
f 38/38/38 48/48/48 47/47/47
f 39/39/39 40/40/40 49/49/49
f 39/39/39 49/49/49 48/48/48
f 40/40/40 41/41/41 50/50/50
f 40/40/40 50/50/50 49/49/49
f 41/41/41 42/42/42 51/51/51
f 41/41/41 51/51/51 50/50/50
f 42/42/42 43/43/43 52/52/52
f 42/42/42 52/52/52 51/51/51
f 45/45/45 44/44/44 53/53/53
f 45/45/45 53/53/53 54/54/54
f 44/44/44 46/46/46 53/53/53
f 46/46/46 47/47/47 55/55/55
f 46/46/46 55/55/55 53/53/53
f 47/47/47 48/48/48 56/56/56
f 47/47/47 56/56/56 55/55/55
f 48/48/48 49/49/49 56/56/56
f 49/49/49 50/50/50 57/57/57
f 49/49/49 57/57/57 56/56/56
f 50/50/50 51/51/51 57/57/57
f 51/51/51 52/52/52 58/58/58
f 51/51/51 58/58/58 57/57/57
f 54/54/54 53/53/53 59/59/59
f 53/53/53 55/55/55 59/59/59
f 55/55/55 56/56/56 59/59/59
f 56/56/56 57/57/57 59/59/59
f 57/57/57 58/58/58 59/59/59
# 100 listed triangle(s).
# 1  Mesh part(s).

# EOF
