# Wavefront Object File.
# Created by Cold Fusion HOD Editor v3.1.5
# Date: 02-07-2012; Time: 22:27:28
# 

# Mesh Part #1
g Part1
usemtl Material_4

v -21.49637 6.898592 22.47061
vn -0.6473421 0.6260949 0.4346876
vt 0 1

v -22.92693 -1.133061E-02 19.05283
vn -0.9807267 -3.611549E-07 0.1953847
vt 0 1

v -21.31482 -0.0113309 26.98111
vn -0.7121855 8.667623E-07 0.7019914
vt 0 1

v -21.49637 -6.921254 22.47061
vn -0.6473415 -0.6260957 0.4346874
vt 0 1

v -21.90823 -6.632417 13.05862
vn -0.6366655 -0.6767629 -0.3696607
vt 0 1

v -22.05105 -1.133043E-02 8.135929
vn -0.6876379 3.651529E-07 -0.7260538
vt 0 1

v -21.90823 6.609756 13.05862
vn -0.6366656 0.6767628 -0.3696608
vt 0 1

v -17.92395 12.16023 25.14284
vn -0.2964479 0.9013455 0.3157448
vt 0 1

v -19.84064 5.419552 30.20524
vn -0.5267139 0.4391827 0.7277987
vt 0 1

v -16.78672 8.471009 33.9276
vn -0.2900063 0.6442287 0.7077187
vt 0 1

v -15.50423 -1.133124E-02 40.57006
vn -0.3050194 -1.408776E-07 0.9523461
vt 0 1

v -18.96329 -1.133106E-02 34.53878
vn -0.5140472 1.251123E-06 0.8577619
vt 0 1

v -19.84064 -5.442214 30.20524
vn -0.5267144 -0.4391818 0.7277989
vt 0 1

v -16.78672 -8.49367 33.9276
vn -0.290006 -0.6442289 0.7077187
vt 0 1

v -17.92395 -12.18289 25.14284
vn -0.2964479 -0.9013456 0.3157448
vt 0 1

v -18.47731 -12.86692 14.99114
vn -0.2966183 -0.9548466 -1.689848E-02
vt 0 1

v -18.70594 -11.56598 6.637847
vn -0.3792002 -0.7383327 -0.5577384
vt 0 1

v -18.79237 -1.133037E-02 2.611832
vn -0.3314418 2.813069E-07 -0.9434757
vt 0 1

v -18.70594 11.54332 6.637847
vn -0.3792002 0.7383327 -0.5577384
vt 0 1

v -18.47732 12.84426 14.99114
vn -0.2966186 0.9548464 -1.689848E-02
vt 0 1

v -12.67012 15.11534 26.5193
vn -0.1231093 0.9540396 0.2732262
vt 0 1

v -11.49486 11.24375 36.80928
vn -0.130083 0.7185731 0.6831772
vt 0 1

v -10.41139 -1.133145E-02 44.72507
vn -0.1416034 -2.865781E-07 0.9899234
vt 0 1

v -11.49486 -11.26642 36.80928
vn -0.130083 -0.7185732 0.6831771
vt 0 1

v -12.67012 -15.138 26.5193
vn -0.1231093 -0.9540395 0.2732262
vt 0 1

v -13.28797 -15.87327 14.61782
vn -0.114929 -0.9922866 -0.0464604
vt 0 1

v -13.66033 -14.09887 4.732315
vn -0.1421438 -0.8376933 -0.5273188
vt 0 1

v -13.67059 -10.63491 0.4836607
vn -0.1292993 -0.3413196 -0.9310117
vt 0 1

v -13.82607 -1.133023E-02 -0.5965042
vn -9.941617E-02 -1.435289E-08 -0.995046
vt 0 1

v -13.67059 10.61225 0.4836607
vn -0.1292993 0.3413194 -0.9310117
vt 0 1

v -13.66033 14.07621 4.732315
vn -0.1421411 0.8376774 -0.5273446
vt 0 1

v -13.28797 15.85061 14.61782
vn -0.1149291 0.9922866 -4.646041E-02
vt 0 1

v -5.901846 16.77277 26.88115
vn -4.691744E-02 0.9684675 0.244682
vt 0 1

v -5.257762 12.71047 37.56629
vn -4.707617E-02 0.7437851 0.666759
vt 0 1

v -4.631669 -1.133172E-02 46.48019
vn -5.035184E-02 -1.000328E-07 0.9987316
vt 0 1

v -5.257761 -12.73313 37.56629
vn -4.707617E-02 -0.7437851 0.6667591
vt 0 1

v -5.901846 -16.79543 26.88115
vn -4.691745E-02 -0.9684676 0.244682
vt 0 1

v -6.238796 -17.49879 14.0828
vn -4.507143E-02 -0.996627 -6.857986E-02
vt 0 1

v -6.464374 -15.50052 3.713183
vn -4.224943E-02 -0.8719932 -0.4876913
vt 0 1

v -6.433185 -11.45196 -0.6072516
vn -0.0322665 -0.4077947 -0.9125033
vt 0 1

v -6.473346 -1.133035E-02 -1.680878
vn -0.0238712 5.096457E-08 -0.999715
vt 0 1

v -6.433185 11.4293 -0.6072516
vn -0.0322665 0.4077946 -0.9125033
vt 0 1

v -6.464374 15.47786 3.713183
vn -4.224944E-02 0.8719932 -0.4876914
vt 0 1

v -6.238796 17.47613 14.0828
vn -4.507143E-02 0.996627 -6.857986E-02
vt 0 1

v -6.506363E-02 -1.133168E-02 46.8675
vn 0 -1.83282E-07 1
vt 0 1

v -6.506363E-02 12.9018 38.08441
vn 0 0.7473983 0.6643763
vt 0 1

v -6.506341E-02 17.22418 27.0821
vn 0 0.9708785 0.2395722
vt 0 1

v -6.506363E-02 -17.24684 27.0821
vn 0 -0.9708785 0.2395722
vt 0 1

v -6.506363E-02 -12.92446 38.08441
vn 0 -0.7473983 0.6643763
vt 0 1

v -6.506363E-02 -15.95608 3.561399
vn 0 -0.8662116 -0.4996774
vt 0 1

v -6.506341E-02 -18.0181 14.14066
vn 0 -0.997193 -7.487328E-02
vt 0 1

v -6.506363E-02 -1.133037E-02 -1.8777
vn 0 2.088314E-07 -1
vt 0 1

v -6.506341E-02 -11.77551 -0.8164769
vn 0 -0.3985571 -0.9171436
vt 0 1

v -6.506363E-02 15.93342 3.561399
vn 0 0.8662116 -0.4996773
vt 0 1

v -6.506341E-02 11.75285 -0.8164769
vn 0 0.3985575 -0.9171434
vt 0 1

v -6.506341E-02 17.99544 14.14066
vn 0 0.997193 -7.487328E-02
vt 0 1

v 21.36624 6.898593 22.47064
vn 0.6473423 0.6260947 0.4346877
vt 0 1

v 21.18469 -1.133117E-02 26.98111
vn 0.7121855 -8.817712E-07 0.7019914
vt 0 1

v 22.7968 -1.133035E-02 19.05283
vn 0.9807267 -8.764026E-07 0.1953847
vt 0 1

v 21.36624 -6.921254 22.47061
vn 0.6473418 -0.6260954 0.4346873
vt 0 1

v 21.7781 -6.632417 13.05862
vn 0.6366658 -0.6767625 -0.3696609
vt 0 1

v 21.92093 -1.133035E-02 8.135929
vn 0.6876379 6.189032E-08 -0.7260538
vt 0 1

v 21.7781 6.609756 13.05862
vn 0.6366656 0.6767626 -0.3696608
vt 0 1

v 17.79382 12.16023 25.14284
vn 0.296448 0.9013455 0.3157449
vt 0 1

v 16.65659 8.47101 33.9276
vn 0.290006 0.6442286 0.7077189
vt 0 1

v 19.71051 5.419551 30.20524
vn 0.5267138 0.4391824 0.727799
vt 0 1

v 15.3741 -1.133117E-02 40.57006
vn 0.3050191 -2.553408E-07 0.9523463
vt 0 1

v 16.6566 -8.49367 33.9276
vn 0.2900059 -0.6442288 0.7077186
vt 0 1

v 19.71051 -5.442214 30.20524
vn 0.526714 -0.4391825 0.7277988
vt 0 1

v 18.83317 -1.133117E-02 34.53878
vn 0.5140472 3.909761E-07 0.8577619
vt 0 1

v 17.79382 -12.18289 25.14284
vn 0.2964479 -0.9013456 0.3157448
vt 0 1

v 18.34719 -12.86692 14.99114
vn 0.2966186 -0.9548464 -1.689848E-02
vt 0 1

v 18.57581 -11.56598 6.637847
vn 0.3792002 -0.7383327 -0.5577385
vt 0 1

v 18.66224 -1.133035E-02 2.611832
vn 0.3314418 -3.955879E-08 -0.9434757
vt 0 1

v 18.57581 11.54332 6.637847
vn 0.3792003 0.7383325 -0.5577386
vt 0 1

v 18.34719 12.84426 14.99114
vn 0.296619 0.9548464 -1.689849E-02
vt 0 1

v 12.54 15.11534 26.5193
vn 0.1231094 0.9540396 0.2732263
vt 0 1

v 11.36473 11.24376 36.80928
vn 0.130083 0.7185731 0.6831772
vt 0 1

v 10.28126 -1.133158E-02 44.72507
vn 0.1416034 -3.540085E-07 0.9899234
vt 0 1

v 11.36473 -11.26642 36.80928
vn 0.1300829 -0.7185734 0.683177
vt 0 1

v 12.54 -15.138 26.5193
vn 0.1231093 -0.9540395 0.2732262
vt 0 1

v 13.15784 -15.87327 14.61782
vn 0.114929 -0.9922866 -0.0464604
vt 0 1

v 13.5302 -14.09887 4.732315
vn 0.1421438 -0.8376933 -0.5273188
vt 0 1

v 13.54046 -10.63491 0.4836607
vn 0.1292993 -0.3413195 -0.9310117
vt 0 1

v 13.69594 -1.133007E-02 -0.5965042
vn 9.941641E-02 -5.382333E-07 -0.9950458
vt 0 1

v 13.54046 10.61225 0.4836607
vn 0.1292993 0.3413192 -0.9310117
vt 0 1

v 13.5302 14.07621 4.732315
vn 0.1421438 0.8376933 -0.5273187
vt 0 1

v 13.15784 15.85061 14.61782
vn 0.114929 0.9922866 -0.0464604
vt 0 1

v 5.771719 16.77277 26.88115
vn 4.691745E-02 0.9684676 0.244682
vt 0 1

v 5.127635 12.71047 37.56629
vn 4.707617E-02 0.7437851 0.6667591
vt 0 1

v 4.501542 -1.133172E-02 46.48019
vn 5.035184E-02 -2.667543E-07 0.9987316
vt 0 1

v 5.127634 -12.73313 37.56629
vn 4.707617E-02 -0.7437851 0.666759
vt 0 1

v 5.77172 -16.79543 26.88115
vn 4.691745E-02 -0.9684676 0.244682
vt 0 1

v 6.108669 -17.49879 14.0828
vn 4.507143E-02 -0.996627 -6.857986E-02
vt 0 1

v 6.334248 -15.50052 3.713183
vn 4.224943E-02 -0.8719932 -0.4876913
vt 0 1

v 6.303058 -11.45196 -0.6072516
vn 0.0322665 -0.4077949 -0.9125032
vt 0 1

v 6.343219 -1.133035E-02 -1.680878
vn 0.0238712 -3.39178E-07 -0.999715
vt 0 1

v 6.303058 11.4293 -0.6072516
vn 3.226649E-02 0.4077954 -0.912503
vt 0 1

v 6.334248 15.47786 3.713183
vn 4.224941E-02 0.8719933 -0.4876911
vt 0 1

v 6.108669 17.47613 14.0828
vn 4.507143E-02 0.996627 -6.857985E-02
vt 0 1
# 100 vertice(s) in part #1.

f 1/1/1 2/2/2 3/3/3
f 3/3/3 2/2/2 4/4/4
f 4/4/4 2/2/2 5/5/5
f 5/5/5 2/2/2 6/6/6
f 7/7/7 2/2/2 1/1/1
f 8/8/8 1/1/1 9/9/9
f 8/8/8 9/9/9 10/10/10
f 11/11/11 12/12/12 13/13/13
f 11/11/11 13/13/13 14/14/14
f 15/15/15 4/4/4 5/5/5
f 15/15/15 5/5/5 16/16/16
f 17/17/17 5/5/5 18/18/18
f 18/18/18 5/5/5 6/6/6
f 18/18/18 7/7/7 19/19/19
f 19/19/19 7/7/7 20/20/20
f 21/21/21 8/8/8 10/10/10
f 21/21/21 10/10/10 22/22/22
f 23/23/23 11/11/11 14/14/14
f 23/23/23 14/14/14 24/24/24
f 25/25/25 15/15/15 16/16/16
f 25/25/25 16/16/16 26/26/26
f 27/27/27 17/17/17 18/18/18
f 27/27/27 18/18/18 28/28/28
f 29/29/29 18/18/18 30/30/30
f 31/31/31 19/19/19 20/20/20
f 31/31/31 20/20/20 32/32/32
f 33/33/33 21/21/21 22/22/22
f 33/33/33 22/22/22 34/34/34
f 35/35/35 23/23/23 24/24/24
f 35/35/35 24/24/24 36/36/36
f 37/37/37 25/25/25 26/26/26
f 37/37/37 26/26/26 38/38/38
f 39/39/39 27/27/27 28/28/28
f 39/39/39 28/28/28 40/40/40
f 41/41/41 29/29/29 30/30/30
f 41/41/41 30/30/30 42/42/42
f 43/43/43 31/31/31 32/32/32
f 43/43/43 32/32/32 44/44/44
f 3/3/3 12/12/12 9/9/9
f 9/9/9 1/1/1 3/3/3
f 4/4/4 13/13/13 3/3/3
f 13/13/13 12/12/12 3/3/3
f 9/9/9 12/12/12 11/11/11
f 9/9/9 11/11/11 10/10/10
f 13/13/13 4/4/4 15/15/15
f 13/13/13 15/15/15 14/14/14
f 5/5/5 17/17/17 16/16/16
f 6/6/6 7/7/7 18/18/18
f 7/7/7 1/1/1 8/8/8
f 7/7/7 8/8/8 20/20/20
f 10/10/10 11/11/11 23/23/23
f 10/10/10 23/23/23 22/22/22
f 14/14/14 15/15/15 25/25/25
f 14/14/14 25/25/25 24/24/24
f 16/16/16 17/17/17 27/27/27
f 16/16/16 27/27/27 26/26/26
f 18/18/18 29/29/29 28/28/28
f 18/18/18 19/19/19 31/31/31
f 18/18/18 31/31/31 30/30/30
f 20/20/20 8/8/8 21/21/21
f 20/20/20 21/21/21 32/32/32
f 22/22/22 23/23/23 35/35/35
f 22/22/22 35/35/35 34/34/34
f 35/35/35 45/45/45 46/46/46
f 35/35/35 46/46/46 34/34/34
f 46/46/46 47/47/47 33/33/33
f 46/46/46 33/33/33 34/34/34
f 24/24/24 25/25/25 37/37/37
f 24/24/24 37/37/37 36/36/36
f 37/37/37 48/48/48 49/49/49
f 37/37/37 49/49/49 36/36/36
f 49/49/49 45/45/45 35/35/35
f 49/49/49 35/35/35 36/36/36
f 26/26/26 27/27/27 39/39/39
f 26/26/26 39/39/39 38/38/38
f 39/39/39 50/50/50 51/51/51
f 39/39/39 51/51/51 38/38/38
f 51/51/51 48/48/48 37/37/37
f 51/51/51 37/37/37 38/38/38
f 28/28/28 29/29/29 41/41/41
f 28/28/28 41/41/41 40/40/40
f 41/41/41 52/52/52 53/53/53
f 41/41/41 53/53/53 40/40/40
f 53/53/53 50/50/50 39/39/39
f 53/53/53 39/39/39 40/40/40
f 30/30/30 31/31/31 43/43/43
f 30/30/30 43/43/43 42/42/42
f 43/43/43 54/54/54 55/55/55
f 43/43/43 55/55/55 42/42/42
f 55/55/55 52/52/52 41/41/41
f 55/55/55 41/41/41 42/42/42
f 32/32/32 21/21/21 33/33/33
f 32/32/32 33/33/33 44/44/44
f 33/33/33 47/47/47 56/56/56
f 33/33/33 56/56/56 44/44/44
f 56/56/56 54/54/54 43/43/43
f 56/56/56 43/43/43 44/44/44
f 6/6/6 2/2/2 7/7/7
f 57/57/57 58/58/58 59/59/59
f 58/58/58 60/60/60 59/59/59
f 60/60/60 61/61/61 59/59/59
f 61/61/61 62/62/62 59/59/59
f 63/63/63 57/57/57 59/59/59
f 64/64/64 65/65/65 66/66/66
f 64/64/64 66/66/66 57/57/57
f 67/67/67 68/68/68 69/69/69
f 67/67/67 69/69/69 70/70/70
f 71/71/71 72/72/72 61/61/61
f 71/71/71 61/61/61 60/60/60
f 73/73/73 74/74/74 61/61/61
f 74/74/74 62/62/62 61/61/61
f 74/74/74 75/75/75 63/63/63
f 75/75/75 76/76/76 63/63/63
f 77/77/77 78/78/78 65/65/65
f 77/77/77 65/65/65 64/64/64
f 79/79/79 80/80/80 68/68/68
f 79/79/79 68/68/68 67/67/67
f 81/81/81 82/82/82 72/72/72
f 81/81/81 72/72/72 71/71/71
f 83/83/83 84/84/84 74/74/74
f 83/83/83 74/74/74 73/73/73
f 85/85/85 86/86/86 74/74/74
f 87/87/87 88/88/88 76/76/76
f 87/87/87 76/76/76 75/75/75
f 89/89/89 90/90/90 78/78/78
f 89/89/89 78/78/78 77/77/77
f 91/91/91 92/92/92 80/80/80
f 91/91/91 80/80/80 79/79/79
f 93/93/93 94/94/94 82/82/82
f 93/93/93 82/82/82 81/81/81
f 95/95/95 96/96/96 84/84/84
f 95/95/95 84/84/84 83/83/83
f 97/97/97 98/98/98 86/86/86
f 97/97/97 86/86/86 85/85/85
f 99/99/99 100/100/100 88/88/88
f 99/99/99 88/88/88 87/87/87
f 58/58/58 66/66/66 70/70/70
f 66/66/66 58/58/58 57/57/57
f 60/60/60 58/58/58 69/69/69
f 69/69/69 58/58/58 70/70/70
f 66/66/66 65/65/65 67/67/67
f 66/66/66 67/67/67 70/70/70
f 69/69/69 68/68/68 71/71/71
f 69/69/69 71/71/71 60/60/60
f 61/61/61 72/72/72 73/73/73
f 62/62/62 74/74/74 63/63/63
f 63/63/63 76/76/76 64/64/64
f 63/63/63 64/64/64 57/57/57
f 65/65/65 78/78/78 79/79/79
f 65/65/65 79/79/79 67/67/67
f 68/68/68 80/80/80 81/81/81
f 68/68/68 81/81/81 71/71/71
f 72/72/72 82/82/82 83/83/83
f 72/72/72 83/83/83 73/73/73
f 74/74/74 84/84/84 85/85/85
f 74/74/74 86/86/86 87/87/87
f 74/74/74 87/87/87 75/75/75
f 76/76/76 88/88/88 77/77/77
f 76/76/76 77/77/77 64/64/64
f 78/78/78 90/90/90 91/91/91
f 78/78/78 91/91/91 79/79/79
f 91/91/91 90/90/90 46/46/46
f 91/91/91 46/46/46 45/45/45
f 46/46/46 90/90/90 89/89/89
f 46/46/46 89/89/89 47/47/47
f 80/80/80 92/92/92 93/93/93
f 80/80/80 93/93/93 81/81/81
f 93/93/93 92/92/92 49/49/49
f 93/93/93 49/49/49 48/48/48
f 49/49/49 92/92/92 91/91/91
f 49/49/49 91/91/91 45/45/45
f 82/82/82 94/94/94 95/95/95
f 82/82/82 95/95/95 83/83/83
f 95/95/95 94/94/94 51/51/51
f 95/95/95 51/51/51 50/50/50
f 51/51/51 94/94/94 93/93/93
f 51/51/51 93/93/93 48/48/48
f 84/84/84 96/96/96 97/97/97
f 84/84/84 97/97/97 85/85/85
f 97/97/97 96/96/96 53/53/53
f 97/97/97 53/53/53 52/52/52
f 53/53/53 96/96/96 95/95/95
f 53/53/53 95/95/95 50/50/50
f 86/86/86 98/98/98 99/99/99
f 86/86/86 99/99/99 87/87/87
f 99/99/99 98/98/98 55/55/55
f 99/99/99 55/55/55 54/54/54
f 55/55/55 98/98/98 97/97/97
f 55/55/55 97/97/97 52/52/52
f 88/88/88 100/100/100 89/89/89
f 88/88/88 89/89/89 77/77/77
f 89/89/89 100/100/100 56/56/56
f 89/89/89 56/56/56 47/47/47
f 56/56/56 100/100/100 99/99/99
f 56/56/56 99/99/99 54/54/54
f 62/62/62 63/63/63 59/59/59
# 196 listed triangle(s).
# 1  Mesh part(s).

# EOF
