# Wavefront Object File.
# Created by Cold Fusion HOD Editor v3.1.5
# Date: 02-07-2012; Time: 22:19:10
# 

# Mesh Part #1
g Part1
usemtl Material_4

v -16.8867 -1.182538E-02 48.76615
vn -0.3052165 -2.787004E-07 0.952283
vt 0 1

v -27.41367 -1.182475E-02 29.14499
vn -0.7132948 3.767996E-07 0.7008641
vt 0 1

v -19.19724 -12.28342 34.64529
vn -0.3140814 -0.7577294 0.572013
vt 0 1

v -28.72317 -1.182438E-02 11.20097
vn -0.9826595 1.124212E-07 -0.1854193
vt 0 1

v -20.72403 -14.99662 16.13212
vn -0.3466085 -0.9368117 4.739612E-02
vt 0 1

v -24.42813 -10.11478 6.560247
vn -0.4828462 -0.6524529 -0.584093
vt 0 1

v -24.54153 -1.182437E-02 1.841475
vn -0.3566285 -5.515273E-07 -0.9342462
vt 0 1

v -24.42813 10.09113 6.560247
vn -0.4828469 0.6524523 -0.5840932
vt 0 1

v -20.72403 14.97297 16.13212
vn -0.3466085 0.9368117 4.739612E-02
vt 0 1

v -17.82185 -11.09859 -0.6528919
vn -0.1756251 -0.3656234 -0.9140434
vt 0 1

v -18.02584 -1.182422E-02 -1.918921
vn -0.1015133 5.057279E-07 -0.9948342
vt 0 1

v -17.82185 11.07494 -0.6528919
vn -0.1756247 0.3656234 -0.9140435
vt 0 1

v -17.80839 14.68992 4.326829
vn -0.1804384 0.8440775 -0.5049508
vt 0 1

v 0.0283236 -1.182576E-02 53.40961
vn 0 -1.693692E-07 1
vt 0 1

v 2.832389E-02 -15.51979 36.68919
vn 0 -0.8344814 0.5510362
vt 0 1

v 0.0283236 -18.44238 15.30885
vn 0 -0.9997589 2.195613E-02
vt 0 1

v 2.832389E-02 -16.3348 3.073035
vn 0 -0.868028 -0.4965153
vt 0 1

v -17.80839 -14.71357 4.326829
vn -0.1804384 -0.8440773 -0.5049508
vt 0 1

v 2.832389E-02 -12.06381 -2.013249
vn 0 -0.377875 -0.9258566
vt 0 1

v 2.832389E-02 -1.182435E-02 -3.26678
vn 0 5.491592E-07 -1
vt 0 1

v 0.0283236 12.04017 -2.013249
vn 0 0.3778758 -0.9258563
vt 0 1

v 2.832389E-02 16.31116 3.073035
vn 0 0.868028 -0.4965152
vt 0 1

v 0.0283236 18.41873 15.30885
vn 0 0.999759 2.195613E-02
vt 0 1

v -19.19723 12.25977 34.64529
vn -0.3140814 0.7577294 0.572013
vt 0 1

v 0.0283236 15.49614 36.68919
vn 0 0.8344812 0.5510362
vt 0 1

v 16.94335 -1.182542E-02 48.76615
vn 0.2910394 6.462396E-17 0.9567111
vt 0 1

v 19.25388 -12.28342 34.64529
vn 0.3052065 -0.7546854 0.5807745
vt 0 1

v 26.73216 -1.182492E-02 31.80104
vn 0.6865275 -4.361237E-08 0.7271038
vt 0 1

v 20.78067 -14.99662 16.13212
vn 0.338893 -0.9408087 -5.530254E-03
vt 0 1

v 29.00257 -1.182434E-02 12.37192
vn 0.9557032 -6.453236E-07 -0.2943321
vt 0 1

v 22.55718 -11.4101 5.365852
vn 0.4511821 -0.6630182 -0.5973621
vt 0 1

v 24.59818 -1.182434E-02 1.841475
vn 0.3690229 -5.802101E-07 -0.9294202
vt 0 1

v 22.55718 11.38646 5.365852
vn 0.4511829 0.6630175 -0.5973624
vt 0 1

v 20.78068 14.97297 16.13212
vn 0.338893 0.9408087 -5.530254E-03
vt 0 1

v 17.8785 -11.09859 -0.6528919
vn 0.1749332 -0.3725126 -0.9113905
vt 0 1

v 18.08249 -1.182406E-02 -1.918921
vn 0.1015133 1.435821E-08 -0.9948342
vt 0 1

v 17.8785 11.07494 -0.6528919
vn 0.1749333 0.3725121 -0.9113907
vt 0 1

v 17.86504 14.68992 4.326829
vn 0.1736972 0.8453352 -0.5052105
vt 0 1

v 17.86504 -14.71357 4.326829
vn 0.1736972 -0.8453352 -0.5052103
vt 0 1

v 19.25388 12.25977 34.64529
vn 0.3052065 0.7546854 0.5807745
vt 0 1
# 40 vertice(s) in part #1.

f 1/1/1 2/2/2 3/3/3
f 3/3/3 2/2/2 4/4/4
f 3/3/3 4/4/4 5/5/5
f 6/6/6 4/4/4 7/7/7
f 7/7/7 4/4/4 8/8/8
f 8/8/8 4/4/4 9/9/9
f 10/10/10 6/6/6 7/7/7
f 11/11/11 7/7/7 12/12/12
f 13/13/13 8/8/8 9/9/9
f 14/14/14 1/1/1 3/3/3
f 14/14/14 3/3/3 15/15/15
f 15/15/15 3/3/3 5/5/5
f 15/15/15 5/5/5 16/16/16
f 17/17/17 18/18/18 10/10/10
f 17/17/17 10/10/10 19/19/19
f 20/20/20 11/11/11 12/12/12
f 20/20/20 12/12/12 21/21/21
f 22/22/22 13/13/13 9/9/9
f 22/22/22 9/9/9 23/23/23
f 2/2/2 1/1/1 24/24/24
f 4/4/4 6/6/6 5/5/5
f 4/4/4 2/2/2 24/24/24
f 4/4/4 24/24/24 9/9/9
f 5/5/5 6/6/6 18/18/18
f 7/7/7 11/11/11 10/10/10
f 12/12/12 8/8/8 13/13/13
f 24/24/24 1/1/1 14/14/14
f 24/24/24 14/14/14 25/25/25
f 5/5/5 18/18/18 17/17/17
f 5/5/5 17/17/17 16/16/16
f 10/10/10 11/11/11 20/20/20
f 10/10/10 20/20/20 19/19/19
f 12/12/12 13/13/13 22/22/22
f 12/12/12 22/22/22 21/21/21
f 9/9/9 24/24/24 25/25/25
f 9/9/9 25/25/25 23/23/23
f 26/26/26 27/27/27 28/28/28
f 27/27/27 29/29/29 30/30/30
f 27/27/27 30/30/30 28/28/28
f 31/31/31 32/32/32 30/30/30
f 32/32/32 33/33/33 30/30/30
f 33/33/33 34/34/34 30/30/30
f 31/31/31 35/35/35 32/32/32
f 36/36/36 37/37/37 32/32/32
f 38/38/38 34/34/34 33/33/33
f 14/14/14 15/15/15 27/27/27
f 14/14/14 27/27/27 26/26/26
f 15/15/15 16/16/16 29/29/29
f 15/15/15 29/29/29 27/27/27
f 17/17/17 19/19/19 35/35/35
f 17/17/17 35/35/35 39/39/39
f 20/20/20 21/21/21 37/37/37
f 20/20/20 37/37/37 36/36/36
f 22/22/22 23/23/23 34/34/34
f 22/22/22 34/34/34 38/38/38
f 28/28/28 40/40/40 26/26/26
f 30/30/30 29/29/29 31/31/31
f 30/30/30 34/34/34 40/40/40
f 30/30/30 40/40/40 28/28/28
f 29/29/29 39/39/39 31/31/31
f 32/32/32 35/35/35 36/36/36
f 32/32/32 37/37/37 33/33/33
f 40/40/40 25/25/25 14/14/14
f 40/40/40 14/14/14 26/26/26
f 29/29/29 16/16/16 17/17/17
f 29/29/29 17/17/17 39/39/39
f 35/35/35 19/19/19 20/20/20
f 35/35/35 20/20/20 36/36/36
f 37/37/37 21/21/21 22/22/22
f 37/37/37 22/22/22 38/38/38
f 34/34/34 23/23/23 25/25/25
f 34/34/34 25/25/25 40/40/40
f 39/39/39 35/35/35 31/31/31
f 18/18/18 6/6/6 10/10/10
f 7/7/7 8/8/8 12/12/12
f 33/33/33 37/37/37 38/38/38
# 76 listed triangle(s).
# 1  Mesh part(s).

# EOF
